<?xml version="1.0" encoding="UTF-8" standalone="no"?>
<svg
   xmlns:dc="http://purl.org/dc/elements/1.1/"
   xmlns:cc="http://creativecommons.org/ns#"
   xmlns:rdf="http://www.w3.org/1999/02/22-rdf-syntax-ns#"
   xmlns:svg="http://www.w3.org/2000/svg"
   xmlns="http://www.w3.org/2000/svg"
   xmlns:sodipodi="http://sodipodi.sourceforge.net/DTD/sodipodi-0.dtd"
   xmlns:inkscape="http://www.inkscape.org/namespaces/inkscape"
   inkscape:version="1.0 (4035a4fb49, 2020-05-01)"
   sodipodi:docname="Chacarita_Jrs..svg"
   viewBox="0 0 499.99997 550.5542"
   height="550.5542"
   width="499.99997"
   id="svg10"
   version="1.1">
  <metadata
     id="metadata16">
    <rdf:RDF>
      <cc:Work
         rdf:about="">
        <dc:format>image/svg+xml</dc:format>
        <dc:type
           rdf:resource="http://purl.org/dc/dcmitype/StillImage" />
        <dc:title></dc:title>
      </cc:Work>
    </rdf:RDF>
  </metadata>
  <defs
     id="defs14" />
  <sodipodi:namedview
     inkscape:current-layer="g38"
     inkscape:window-maximized="1"
     inkscape:window-y="-8"
     inkscape:window-x="-8"
     inkscape:cy="542.26144"
     inkscape:cx="597.38698"
     inkscape:zoom="0.38686827"
     showgrid="false"
     id="namedview12"
     inkscape:window-height="705"
     inkscape:window-width="1366"
     inkscape:pageshadow="2"
     inkscape:pageopacity="0"
     guidetolerance="10"
     gridtolerance="10"
     objecttolerance="10"
     borderopacity="1"
     bordercolor="#666666"
     pagecolor="#ffffff" />
  <g
     transform="translate(-2377.4217,-613.7499)"
     id="g18"
     inkscape:label="Image"
     inkscape:groupmode="layer">
    <g
       transform="translate(1013.2648,258.48592)"
       id="g22">
      <g
         transform="translate(1085.6963,318.03223)"
         id="g33">
        <g
           id="g38">
          <g
             transform="matrix(0.10471992,0,0,0.10471992,249.30022,33.332842)"
             id="g43">
            <path
               sodipodi:nodetypes="ssssssssssscssssssssssssssss"
               style="fill:#000000;stroke-width:1.33333"
               d="M 2595.3334,5252.9155 C 2190.6474,5009.6702 1847.2862,4761.6693 1556.7232,4502.7548 1437.0992,4396.1605 1314.2001,4275.4264 1213.2096,4165.2929 633.20423,3532.7778 326.06445,2819.9541 283.3931,2007.3334 c -6.56226,-124.9699 -6.57721,-280.1296 -0.0415,-430 16.79328,-385.0825 70.22854,-752.66761 159.42071,-1096.66672 14.15228,-54.58296 33.2869,-123.69438 34.66368,-125.20002 0.6356,-0.69509 17.25452,3.64295 39.49729,10.30999 212.33477,63.64515 391.62095,96.26912 601.73342,109.49496 110.2357,6.93897 233.3252,6.94635 344.6666,0.0207 481.7895,-29.96825 919.0374,-186.36024 1186.3979,-424.343093 l 15.4108,-13.717469 23.7623,20.408232 c 31.1359,26.740951 45.3027,38.11639 75.0957,60.29961 98.64,73.44489 222.8074,141.50047 355.3334,194.75666 224.0173,90.02243 482.6316,146.18247 748.6667,162.57865 84.4353,5.20389 203.7849,6.72251 277.3333,3.52881 242.447,-10.52777 432.4783,-42.44991 665.0628,-111.7196 25.0751,-7.46803 43.5248,-12.32234 44.169,-11.62131 2.2736,2.47453 34.0361,122.26055 51.23,193.2039 76.3221,314.9112 124.2039,654.1819 141.5079,1002.6667 4.3248,87.0968 4.886,108.4801 5.6158,214 1.053,152.2054 -2.3197,243.6998 -13.6877,371.3333 -64.1936,720.7216 -338.1534,1354.5333 -834.4896,1930.6093 -110.6599,128.438 -242.3419,263.6425 -376.7802,386.8589 -280.2548,256.8616 -620.0941,509.3187 -1001.2947,743.8338 -50.2265,30.8995 -160.5851,96.8453 -161.7571,96.6596 -0.1336,-0.021 -31.4429,-18.7919 -69.5762,-41.7128 z"
               id="path24" />
            <path
               style="fill:#fefefe;stroke-width:1.33333"
               d="m 2431.3334,5029.8276 c -11.7333,-7.6629 -32.2833,-21.0784 -45.6667,-29.8121 l -25.0001,-16.5188 V 3449.8749 c 5.1081,2.0901 53.8805,11.4529 72.3335,14.8691 l 20.3333,3.7642 v 787.7461 c 0,433.2602 -0.15,787.6919 -0.3333,787.6259 -0.1834,-0.067 -9.9334,-6.3898 -21.6667,-14.0526 z m 447.6662,-1563.1608 c 2.0157,0 55.2285,-11.5376 71.1608,-15.3494 10.6912,-2.5578 20.513,-4.6506 21.1732,-4.6506 0.7106,0 0.6665,313.4561 0.6665,767.9321 l -0.6665,768.9768 -3.6668,2.2281 c -3.5212,2.1396 -79.5212,51.783 -88.6672,57.3409 z m -960.3329,1202.3985 c -7.7,-5.9528 -28.25,-22.2066 -45.6666,-36.1194 l -31.6665,-25.2962 -2e-4,-715.8074 v -715.8075 l 25.0863,20.9826 c 13.7974,11.5404 34.7974,28.3638 46.6666,37.3851 l 21.5804,16.4024 v 714.5976 c 0,0 -0.4501,714.5729 -1.0001,714.5422 -0.55,-0.031 -7.2999,-4.9264 -14.9999,-10.8794 z M 3396.0001,3961.3321 V 3242.664 l 8.2772,-6.3319 c 17.4479,-13.3473 47.6821,-37.8729 62.252,-50.4979 8.3577,-7.2421 17.2077,-14.8612 19.6667,-16.9312 l 4.4706,-3.7637 2e-4,721.2295 -2e-4,721.2295 -26.9998,21.3572 c -36.9302,29.2123 -66.4465,52.7752 -67.6622,52.7752 -0.5563,0 0,-325.1312 0,-720.3986 z m -2026.9803,217.9166 -47.0202,-49.458 1.0202,-1772.4573 -1.0202,-1774.17965 37.3338,-0.6406 c 19.8023,-0.33978 40.5,-1.00195 46,-1.22407 l 10,-0.40386 0.3342,911.55748 c 0.1839,501.3566 0.1839,1321.7693 0,1823.1393 l -0.3342,911.5819 z M 3916.1436,580.3698 c 32.0813,2.33094 60.611,2.2677 93.191,2.96355 V 4131.3957 l -46.5957,47.3022 -46.5953,47.3022 z M 882.07284,3566.9696 c -18.88453,-29.863 -43.92083,-71.2286 -62.27425,-102.8912 l -15.79856,-27.255 2.33333,-2894.93202 c 29.8468,5.00281 59.56999,12.12655 89.66624,15.44237 V 3588.8677 c -0.18333,-0.017 -6.63348,-10.3649 -13.92676,-21.8981 z M 4434.6646,556.58475 c 26.1577,-1.85966 72.5119,-11.01635 93.336,-14.73295 v 1447.176 1447.8742 l -18.8646,31.8824 c -25.9236,43.8125 -70.7527,116.9533 -74.4714,121.0423 z M 2610.3527,3318.5356 c -227.5012,-10.8324 -444.8313,-93.453 -621.4486,-236.2504 -55.0224,-44.4864 -110.9235,-100.0115 -156.0012,-154.9518 -160.9555,-196.1713 -245.4747,-444.646 -236.8409,-696.2796 7.8261,-228.0903 87.2241,-442.2977 229.9525,-620.3871 234.1157,-292.118 601.7368,-440.2397 972.6523,-391.9004 119.2098,15.536 236.4368,51.7439 343.8149,106.1941 172.9985,87.7258 319.6113,221.8283 422.6985,386.6303 124.777,199.4768 178.2563,435.266 152.0556,670.4094 -19.5184,175.1729 -84.4505,344.1899 -188.0077,489.3809 -171.408,240.3203 -434.4285,399.2367 -725.8947,438.584 -63.8401,8.6183 -130.1386,11.5627 -192.9807,8.5706 z m 129.6474,-113.8071 c 164.0353,-14.6865 313.0411,-66.5995 448,-156.0812 37.9399,-25.1552 82.0309,-59.1309 109.1877,-84.1381 l 7.1878,-6.6187 -47.7263,-51.2785 c -64.6212,-69.4312 -66.2672,-71.1178 -68.0844,-69.7606 -0.846,0.6318 -8.6691,7.3476 -17.3848,14.9243 -52.0659,45.2608 -123.0912,90.7308 -185.7965,118.9459 -81.5604,36.699 -162.6702,58.1916 -254.7168,67.4952 -32.7336,3.3085 -108.5143,3.3134 -141.3334,0.013 -44.2945,-4.4597 -81.4783,-10.8589 -121.4975,-20.9093 -265.4258,-66.6596 -480.0586,-270.457 -558.6624,-530.4591 -74.9356,-247.8691 -20.1338,-515.6816 146.447,-715.6762 180.1581,-216.2952 460.3012,-319.8697 737.0463,-272.5009 142.4461,24.3817 279.5294,90.0362 385.0233,184.4027 6.4295,5.7513 12.1688,10.2604 12.7541,10.0202 0.5854,-0.2401 26.474,-27.7093 57.5304,-61.0425 l 56.4663,-60.6059 -7.8871,-7.2172 c -24.5369,-22.4529 -66.6157,-55.4267 -99.2204,-77.7509 -196.1298,-134.2931 -434.1888,-189.624 -672.6667,-156.3491 -231.2758,32.2701 -445.6013,151.6507 -596.9854,332.5248 -172.0867,205.6095 -247.9814,471.0127 -210.276,735.3334 20.2729,142.1164 75.0416,280.7659 158.006,400 67.8414,97.4999 155.4013,183.2857 255.0685,249.9008 55.9991,37.4284 129.2713,75.1085 191.9688,98.7195 90.4423,34.0593 183.6928,53.7904 283.6565,60.0197 27,1.6825 106.4159,0.5487 133.895,-1.9116 z m 698.4615,-397.7723 c 113.4101,-159.9543 173.4368,-347.1483 173.5256,-541.1416 0.079,-171.1775 -45.4884,-334.8455 -134.4203,-482.8145 l -11.4193,-19 h -131.7404 -131.7404 v 83.3333 83.3333 h 82.0924 82.0925 l 7.0483,15 c 36.2865,77.2242 58.7704,162.6106 67.6726,257 2.5759,27.3115 2.1742,103.148 -0.6994,132 -6.8847,69.1271 -20.8716,130.9531 -43.7563,193.4143 l -6.8009,18.5624 -26.1579,-25.2343 c -14.3869,-13.8788 -44.1543,-43.2734 -66.1496,-65.3216 -21.9955,-22.0481 -40.3787,-40.0874 -40.8517,-40.0874 -0.473,0 -1.2407,2.0296 -1.706,4.5101 -1.5436,8.228 -14.2599,46.5421 -21.7358,65.4899 -9.5121,24.1085 -23.9604,54.0661 -36.8318,76.3684 -5.6191,9.7358 -10.2164,18.2109 -10.2164,18.8334 0,1.3674 240.1922,238.7982 241.5754,238.7982 0.534,0 5.1327,-5.8697 10.2194,-13.0439 z m -752.4615,-6.9646 c 78.8999,-4.1038 147.2853,-21.9026 215.5573,-56.1036 10.205,-5.1123 18.3064,-9.7284 18.0032,-10.2582 -0.3032,-0.5297 -18.1153,-32.763 -39.5825,-71.6297 -21.4672,-38.8667 -39.468,-71.1604 -40.0019,-71.7639 -0.5337,-0.6035 -7.0404,1.9488 -14.459,5.6716 -34.1008,17.1127 -72.6692,29.1523 -113.5171,35.4359 -19.4743,2.9957 -63.5375,4.0805 -84.7464,2.0864 -77.7902,-7.3139 -148.2247,-36.4826 -207.3834,-85.8826 -39.6473,-33.1072 -72.0061,-74.2456 -94.5557,-120.2101 -19.6187,-39.9905 -30.3164,-75.8763 -36.1712,-121.3373 -2.8025,-21.7611 -2.0976,-68.2512 1.3849,-91.3334 6.1662,-40.8698 16.5687,-74.2046 34.7428,-111.3333 18.5776,-37.9532 40.608,-68.9532 70.0438,-98.5617 l 14.6852,-14.7716 0.3377,195.6666 0.3377,195.6667 h 83.9956 83.9956 v -238.524 c 0,-220.262 0.1682,-238.5885 2.1963,-239.3668 4.7689,-1.83 35.2568,-6.2059 48.8037,-7.0048 l 14.3334,-0.8452 v 341.4767 341.4766 l 4.8956,0.9184 c 6.6089,1.2399 37.8635,-0.4048 55.1044,-2.8997 31.5611,-4.5671 62.2084,-13.8451 91,-27.5488 l 17,-8.0915 v -139.808 -139.808 l 65.6667,0.3459 65.6666,0.3459 0.3372,221 0.3374,221 h 84.6626 84.6628 v -470 -470 h -84.6666 -84.6667 v 165.3333 165.3333 h -66 -66 v -84.0121 -84.0121 l 13.5028,6.776 c 7.4265,3.7268 13.9396,6.2822 14.4733,5.6788 0.918,-1.0378 80.0239,-144.4619 80.0239,-145.0884 0,-0.1626 -7.95,-4.2343 -17.6667,-9.0482 -22.6485,-11.2206 -43.1062,-19.6112 -69,-28.2993 l -20.6666,-6.9343 -0.3414,-104.7762 c -0.3246,-99.6187 -0.4597,-104.8138 -2.7453,-105.5393 -1.322,-0.4196 -12.8684,-2.5166 -25.6585,-4.6601 -116.9326,-19.5963 -243.4555,-10.176 -356.2549,26.5249 l -17,5.5312 -0.013,110.9295 -0.013,110.9296 -9.6578,5.2184 c -76.5706,41.3742 -144.2761,103.0682 -192.544,175.4483 -37.304,55.9392 -64.107,119.2197 -77.7081,183.4644 -25.0045,118.1089 -10.4205,238.0628 41.9696,345.2023 56.4189,115.3782 154.4684,208.2665 273.5497,259.1507 58.3499,24.9332 121.0979,39.4894 184.3895,42.7745 28.6804,1.4887 28.0207,1.4879 55.3523,0.067 z M 2578.6667,1714.6667 c 0,-15.4809 0.3324,-18.6666 1.9478,-18.6666 1.0712,0 7.8212,-0.6226 15,-1.3834 7.1788,-0.7608 21.0022,-1.815 30.7189,-2.3428 l 17.6667,-0.9594 v 18.2001 c 0,15.3661 -0.3284,18.3261 -2.1091,19.0095 -1.16,0.4452 -7.01,0.8157 -13,0.8236 -5.99,0.013 -19.2909,0.9068 -29.5576,1.9976 -10.2667,1.0908 -19.1167,1.9842 -19.6667,1.9857 -0.55,0 -1,-8.3976 -1,-18.6643 z m 900.6667,-360.3263 c -19.1513,-15.8544 -48.7796,-41.2889 -66.3333,-54.7844 l -16.9955,-12.9872 V 508.71175 c 1.0981,0 94.3341,20.8818 94.662,21.19461 v 833.81624 z m -1638,-413.46861 V 529.74352 l 43.6667,-9.62573 c 16.3476,-4.46447 32.4759,-6.23675 48.6665,-11.28504 v 384.98166 385.61639 l -15.3332,11.4446 c -20.4446,15.2598 -38.3152,29.6808 -59.2431,47.3842 -8.9337,7.5572 -17.3404,13.7404 -17.7567,13.7404 -0.4162,0 -2e-4,-185.0077 -2e-4,-411.12821 z m 1110.6667,137.67671 c -8.4333,-2.1026 -27.3333,-6.265 -42,-9.2497 -14.6667,-2.9847 -28.0167,-5.7094 -29.6667,-6.0548 l -1.3338,-0.6281 V 687.97462 313.33334 c -0.3727,0 16.334,8.61454 36.678,19.14342 20.3441,10.52888 41.1892,21.17888 46.3225,23.66666 l 9.3335,4.28533 v 723.29595 c -1.2847,-0.081 -10.9002,-3.0736 -19.3335,-5.1762 z M 2360.6666,720.09594 V 360.16975 l 28.5412,-14.1069 c 15.3687,-7.59618 35.7817,-18.17485 45.4461,-23.3394 9.6643,-5.16456 17.8208,-9.39011 18.1255,-9.39011 0.3047,0 0.554,168.30001 0.554,374.00001 0,230.66211 -0.4769,374.00005 -1.2445,374.00005 -4.7678,0 -82.0808,16.2683 -91.4223,19.1603 0,0 -0.6339,-18.0751 0,-360.39776 z"
               id="path28"
               sodipodi:nodetypes="ssccscssscssscsccsscccssccssccssscccsssccccsscsscccccccccscccccscccsscccsssssssssscscssssscssssssscscssssssssscsscccccccsssscsssssssscsssssssssssssscccccssscccssscccccccccccccccccccssssscsssscccsssssssssssscsscscsssssccccsssccssssssccsssscscccssssssscs" />
            <path
               style="fill:#fd1000;stroke-width:1.33333"
               d="m 2345.3334,4973.5218 c -99.1449,-64.4983 -233.5119,-159.1439 -350,-246.5347 l -61.6668,-47.0424 v -714.5576 -715.5869 l 12.3335,8.6892 c 6.6615,4.6931 22.2,15.3998 34.6666,23.6015 110.7042,72.8308 232.1284,127.4232 359.8222,161.7763 10.9021,2.9329 20.0526,5.5632 20.3344,5.845 0.2818,0.2819 0.3618,345.4987 0.178,767.1485 l -0.3347,766.636 z m 626.0002,-758.9815 v -769.0351 l 4.2824,-0.8035 c 19.1883,-3.6003 95.2254,-28.342 134.3841,-43.7283 94.6667,-37.1965 194.4157,-91.5393 271.3333,-147.8209 l 14.6712,-11.2196 v 719.8991 719.8987 l -42.3354,31.9496 c -118.3354,89.305 -221.4256,162.6003 -338.3358,240.5559 l -43.9998,29.3395 z M 1306.5206,4113.2289 C 1206.4985,4006.2096 1099.5942,3876.8937 1015.063,3760.6668 984.67928,3718.8905 933.1251,3645.1281 913.09059,3614.7674 L 895.9996,3588.8677 V 2073.1007 557.33375 c 0.64258,0.0541 18.17698,1.79155 35.61971,3.98171 117.43869,14.74592 267.52699,24.10114 359.71409,22.42149 l 30.6662,-0.5832 v 1130.75655 1773.3186 642.5618 z m 2702.814,-3529.89555 58.6655,-0.13468 c 111.2972,-0.25551 241.9706,-9.43504 355.3334,-24.96923 l 11.3311,-1.64469 V 2073.2061 3589.8267 l -20.8439,31.4202 c -97.9587,147.6633 -207.6843,289.6356 -332.3968,430.0866 -29.2439,32.9344 -70.0466,78.7998 -72.0893,80.0622 z m -626.6678,693.81755 c -90.7731,-66.7822 -209.5846,-128.451 -320.6667,-166.4411 -26.0352,-8.9041 -71.5657,-22.7619 -83.3333,-25.3636 l -7.3332,-1.6215 V 722.07676 360.42875 l 11.3332,5.26493 c 112.28,52.16059 236.5268,96.62285 364.6666,130.49643 24.9334,6.59109 47.7546,12.2258 48.6712,12.52164 v 777.85705 c -0.1834,-0.054 -6.3712,-4.2925 -13.3378,-9.4179 z M 1933.6666,894.13148 V 508.83275 l 17.0001,-3.80805 c 133.3461,-29.86974 269.34,-80.5301 393,-136.81409 l 16.9999,-8.04086 v 359.82522 360.49873 c 0,0 -12.0999,2.859 -21.9999,5.5289 -108.8501,29.3564 -212.4185,73.1447 -310,131.0669 -23.6492,14.0377 -64.1737,40.3572 -82.6666,53.6896 l -12.3335,8.6517 z"
               id="path26"
               sodipodi:nodetypes="sscccssssscsccssscccssccssscscsscsscscsscccssccssscccssccsccsscsccsscc" />
          </g>
        </g>
      </g>
    </g>
  </g>
</svg>
