<?xml version="1.0" encoding="UTF-8" standalone="no"?>
<!-- Generator: Adobe Illustrator 14.0.0, SVG Export Plug-In . SVG Version: 6.00 Build 43363)  -->

<svg
   xmlns:dc="http://purl.org/dc/elements/1.1/"
   xmlns:cc="http://creativecommons.org/ns#"
   xmlns:rdf="http://www.w3.org/1999/02/22-rdf-syntax-ns#"
   xmlns:svg="http://www.w3.org/2000/svg"
   xmlns="http://www.w3.org/2000/svg"
   xmlns:sodipodi="http://sodipodi.sourceforge.net/DTD/sodipodi-0.dtd"
   xmlns:inkscape="http://www.inkscape.org/namespaces/inkscape"
   version="1.1"
   id="Capa_1"
   x="0px"
   y="0px"
   width="370"
   height="390"
   viewBox="0 0 369.99998 389.99998"
   enable-background="new 0 0 595.28 595.28"
   xml:space="preserve"
   inkscape:version="0.48.1 "
   sodipodi:docname="Dep_Espanol_logo.svg"><metadata
   id="metadata3029"><rdf:RDF><cc:Work
       rdf:about=""><dc:format>image/svg+xml</dc:format><dc:type
         rdf:resource="http://purl.org/dc/dcmitype/StillImage" /></cc:Work></rdf:RDF></metadata><defs
   id="defs3027" /><sodipodi:namedview
   pagecolor="#ffffff"
   bordercolor="#666666"
   borderopacity="1"
   objecttolerance="10"
   gridtolerance="10"
   guidetolerance="10"
   inkscape:pageopacity="0"
   inkscape:pageshadow="2"
   inkscape:window-width="1366"
   inkscape:window-height="706"
   id="namedview3025"
   showgrid="false"
   inkscape:zoom="0.48884556"
   inkscape:cx="297.64001"
   inkscape:cy="297.64001"
   inkscape:window-x="-8"
   inkscape:window-y="-8"
   inkscape:window-maximized="1"
   inkscape:current-layer="Capa_1" />
<g
   id="g3009"
   transform="matrix(0.9612482,0,0,0.9130183,-105.41213,-71.2677)">
	<path
   d="m 308.932,444.455 c 7.543,0 23.64,-0.189 40.91,33.8 l 5.023,13.666 v -95.262 h 61.818 c 13.625,0 26.307,-14.046 26.307,-27.666 V 129.502 c 0,-7.54 1.053,-28.423 44.918,-37.387 l 0,0 H 286.439 c -25.074,0.802 -25.754,18.317 -25.754,31.945 v 31.978 H 118.391 l 8.31,2.307 c 37.482,14.487 36.612,31.54 36.612,39.081 v 206.536 c 0,13.632 7.586,40.188 39.22,40.494 h 106.399 z"
   id="path3011"
   inkscape:connector-curvature="0" />
	<path
   d="m 291.351,109.089 c -6.947,0 -10.896,5.654 -10.896,12.609 v 113.145 c 0,0 -55.485,0 -80.075,0 1.041,3.167 1.728,6.456 1.728,9.865 v 173.809 c 0,6.946 5.66,5.332 12.611,5.332 l 120.948,-7.274 c 3.406,0 -0.568,-13.861 2.591,-12.815 0,-15.793 0,17.729 0,-23.695 h 69.877 c 6.958,0 16.274,-0.083 16.244,-18.617 V 198.97 c 0,-2.854 0,-53.853 0,-75.432 0.113,-11.064 7.27,-13.629 7.27,-14.45 -45.101,0.001 -45.037,0.001 -140.298,0.001 z"
   id="path3013"
   inkscape:connector-curvature="0"
   style="fill:#bc0e1d" />
	<path
   d="m 275.106,172.832 c 0,0 -4.72,0 -12.059,0 l -69.948,0.18 c 1.052,3.168 1.733,68.287 1.733,71.696 v 166.534 c 0,6.946 5.66,16.244 12.611,16.244 H 317.48 c 11.534,0.841 20.776,9.935 20.776,12.644 0,-14.017 0,-3.885 0,-3.885 V 194.04 c 0,-17.261 -11.045,-21.208 -24.671,-21.208 h -38.479 z"
   id="path3015"
   inkscape:connector-curvature="0"
   style="fill:#ffffff" />
	<path
   d="M 262.365,172.832 H 174.92 c 5.414,3.502 9.249,7.448 9.082,16.548 -0.005,57.328 -0.005,52.869 -0.005,55.328 v 159.254 c 0,6.953 6.078,23.524 20.411,23.524 h 57.958 V 172.832 z"
   id="path3017"
   inkscape:connector-curvature="0"
   style="fill:#239ecb" />
	<path
   d="m 235.425,299.631 11.984,3.245 c -0.08,9.853 -1.92,17.609 -5.52,23.285 -3.589,5.676 -8.514,8.503 -14.758,8.503 -7.698,0 -13.411,-3.917 -17.134,-11.743 -3.729,-7.832 -5.584,-19.752 -5.584,-35.751 0,-33.035 6.555,-49.551 19.649,-49.551 4.609,0 8.111,2.06 10.504,6.18 h 0.252 v -4.549 h 11.738 v 30.406 h -11.738 c 0,-6.354 -0.745,-11.208 -2.226,-14.572 -1.491,-3.361 -3.616,-5.045 -6.368,-5.045 -2.049,0 -3.524,0.815 -4.43,2.432 -0.918,1.618 -1.54,4.828 -1.878,9.624 -0.343,4.799 -0.509,12.596 -0.509,23.392 0,14.876 0.515,24.716 1.566,29.533 1.041,4.813 3.192,7.227 6.438,7.227 2.779,0 4.807,-1.738 6.088,-5.23 1.283,-3.495 1.926,-9.288 1.926,-17.386 z"
   id="path3019"
   inkscape:connector-curvature="0" />
	<path
   d="m 275.033,333.081 v -11.309 h 7.108 v -71.263 h -7.108 v -11.306 h 17.51 c 11.142,0 19.215,3.841 24.183,11.523 4.983,7.682 7.473,19.604 7.473,35.759 0,15.82 -2.549,27.541 -7.629,35.164 -5.085,7.623 -12.966,11.432 -23.646,11.432 h -17.891 z m 20.814,-82.572 v 71.263 c 4.995,-0.08 8.466,-2.597 10.429,-7.542 1.952,-4.946 2.935,-13.674 2.935,-26.186 0,-9.77 -0.413,-17.333 -1.229,-22.697 -0.82,-5.362 -2.173,-9.176 -4.066,-11.44 -1.895,-2.263 -4.582,-3.398 -8.069,-3.398 z"
   id="path3021"
   inkscape:connector-curvature="0" />
	<path
   d="m 359.377,333.081 v -11.309 h 7.108 v -71.263 h -7.108 v -11.306 h 44.535 v 27.407 h -11.727 v -16.101 h -11.994 v 28.522 h 9.763 v 11.309 h -9.763 v 31.432 h 11.994 v -17.56 h 11.727 v 28.868 h -44.535 z"
   id="path3023"
   inkscape:connector-curvature="0" />
</g>
</svg>